<?xml version="1.0" encoding="iso-8859-1"?>
<!-- Generator: Adobe Illustrator 14.0.0, SVG Export Plug-In . SVG Version: 6.00 Build 43363)  -->
<!DOCTYPE svg PUBLIC "-//W3C//DTD SVG 1.1//EN" "http://www.w3.org/Graphics/SVG/1.1/DTD/svg11.dtd">
<svg version="1.1" id="Premier_plan" xmlns="http://www.w3.org/2000/svg" xmlns:xlink="http://www.w3.org/1999/xlink" x="0px"
	 y="0px" width="92px" height="92px" viewBox="0 0 92 92" style="enable-background:new 0 0 92 92;" xml:space="preserve">
<g>
	<g>
		<circle style="fill-rule:evenodd;clip-rule:evenodd;fill:#DC9600;" cx="46" cy="46" r="46"/>
		<path style="fill-rule:evenodd;clip-rule:evenodd;" d="M78.93,46.396c0-11.729-3.021-26.551-18.348-26.551
			c-15.327,0-18.636,14.822-18.636,26.551s3.022,26.551,18.348,26.551S78.93,58.125,78.93,46.396z M67.921,46.396
			c0,5.037-0.288,18.061-7.483,18.061s-7.555-12.952-7.555-18.061c0-5.181,0.216-17.988,7.555-17.988
			C67.705,28.408,67.921,41.072,67.921,46.396z"/>
		<path style="fill-rule:evenodd;clip-rule:evenodd;" d="M35.512,71.652V20.854h-8.851c-2.302,1.799-7.771,5.181-13.671,7.986
			l-3.094,1.439l3.454,7.771l2.662-1.367c1.871-0.936,6.979-3.598,8.707-4.965v39.935H35.512z"/>
	</g>
</g>
</svg>
