<?xml version="1.0" encoding="iso-8859-1"?>
<!-- Generator: Adobe Illustrator 14.0.0, SVG Export Plug-In . SVG Version: 6.00 Build 43363)  -->
<!DOCTYPE svg PUBLIC "-//W3C//DTD SVG 1.1//EN" "http://www.w3.org/Graphics/SVG/1.1/DTD/svg11.dtd">
<svg version="1.1" id="Premier_plan" xmlns="http://www.w3.org/2000/svg" xmlns:xlink="http://www.w3.org/1999/xlink" x="0px"
	 y="0px" width="92px" height="92px" viewBox="0 0 92 92" style="enable-background:new 0 0 92 92;" xml:space="preserve">
<g>
	<g>
		<circle style="fill-rule:evenodd;clip-rule:evenodd;fill:#00643C;" cx="46" cy="46" r="46"/>
		<path style="fill-rule:evenodd;clip-rule:evenodd;fill:#FFFFFF;" d="M36.14,71.652V20.854h-8.851
			c-2.302,1.799-7.771,5.181-13.671,7.986l-3.094,1.439l3.454,7.771l2.663-1.367c1.871-0.936,6.979-3.598,8.706-4.965v39.935H36.14z
			"/>
		<path style="fill-rule:evenodd;clip-rule:evenodd;fill:#FFFFFF;" d="M77.543,71.652v-8.491H56.604
			c0.647-2.949,5.756-7.195,8.347-9.569c6.115-5.54,11.656-9.498,11.656-18.204c0-10.361-8.419-15.397-17.341-15.397
			c-6.835,0-11.368,2.015-16.261,6.26l5.325,7.051c1.223-1.367,4.316-4.604,8.777-4.604c5.541,0,8.419,3.525,8.419,7.914
			c0,4.894-3.669,8.419-7.052,11.369c-6.764,5.9-12.591,11.081-13.886,16.98v6.692H77.543z"/>
	</g>
</g>
</svg>
