<?xml version="1.0" encoding="iso-8859-1"?>
<!-- Generator: Adobe Illustrator 14.0.0, SVG Export Plug-In . SVG Version: 6.00 Build 43363)  -->
<!DOCTYPE svg PUBLIC "-//W3C//DTD SVG 1.1//EN" "http://www.w3.org/Graphics/SVG/1.1/DTD/svg11.dtd">
<svg version="1.1" id="Premier_plan" xmlns="http://www.w3.org/2000/svg" xmlns:xlink="http://www.w3.org/1999/xlink" x="0px"
	 y="0px" width="92px" height="92px" viewBox="0 0 92 92" style="enable-background:new 0 0 92 92;" xml:space="preserve">
<g>
	<g>
		<circle style="fill-rule:evenodd;clip-rule:evenodd;fill:#82C8E6;" cx="46" cy="46" r="46"/>
		<path style="fill-rule:evenodd;clip-rule:evenodd;" d="M35.735,71.652V20.854h-8.85c-2.303,1.799-7.771,5.181-13.671,7.986
			l-3.094,1.439l3.454,7.771l2.663-1.367c1.871-0.936,6.979-3.598,8.706-4.965v39.935H35.735z"/>
		<path style="fill-rule:evenodd;clip-rule:evenodd;" d="M77.21,56.614c0-7.124-4.245-11.297-9.858-12.376v-0.145
			c5.397-2.015,8.203-6.044,8.203-11.296c0-6.764-5.9-12.808-16.262-12.808c-5.972,0-10.864,1.654-15.253,4.532l3.526,7.483
			c1.655-1.439,4.749-3.67,9.426-3.67c5.324,0,7.771,2.807,7.771,6.044c0,3.886-3.094,6.332-8.059,6.332h-5.324v8.419h5.252
			c5.182,0,9.643,1.871,9.643,7.698c0,4.318-3.67,7.483-9.57,7.483c-4.316,0-7.843-1.654-10.002-3.31l-3.885,7.843
			c4.102,2.303,8.059,3.813,14.606,3.813C69.223,72.659,77.21,65.536,77.21,56.614z"/>
	</g>
</g>
</svg>
