<?xml version="1.0" encoding="iso-8859-1"?>
<!-- Generator: Adobe Illustrator 14.0.0, SVG Export Plug-In . SVG Version: 6.00 Build 43363)  -->
<!DOCTYPE svg PUBLIC "-//W3C//DTD SVG 1.1//EN" "http://www.w3.org/Graphics/SVG/1.1/DTD/svg11.dtd">
<svg version="1.1" id="Premier_plan" xmlns="http://www.w3.org/2000/svg" xmlns:xlink="http://www.w3.org/1999/xlink" x="0px"
	 y="0px" width="92px" height="92px" viewBox="0 0 92 92" style="enable-background:new 0 0 92 92;" xml:space="preserve">
<g>
	<g>
		<circle style="fill-rule:evenodd;clip-rule:evenodd;fill:#0055C8;" cx="46" cy="46" r="46"/>
		<path style="fill-rule:evenodd;clip-rule:evenodd;fill:#FFFFFF;" d="M62.608,71.658v-8.49H41.67
			c0.648-2.95,5.756-7.195,8.347-9.57c6.116-5.54,11.656-9.497,11.656-18.204c0-10.361-8.419-15.397-17.34-15.397
			c-6.836,0-11.369,2.015-16.262,6.26l5.325,7.052c1.223-1.367,4.317-4.605,8.778-4.605c5.54,0,8.418,3.525,8.418,7.915
			c0,4.893-3.67,8.419-7.051,11.368c-6.764,5.9-12.592,11.081-13.887,16.981v6.691H62.608z"/>
	</g>
</g>
</svg>
