<?xml version="1.0" encoding="iso-8859-1"?>
<!-- Generator: Adobe Illustrator 14.0.0, SVG Export Plug-In . SVG Version: 6.00 Build 43363)  -->
<!DOCTYPE svg PUBLIC "-//W3C//DTD SVG 1.1//EN" "http://www.w3.org/Graphics/SVG/1.1/DTD/svg11.dtd">
<svg version="1.1" id="Premier_plan" xmlns="http://www.w3.org/2000/svg" xmlns:xlink="http://www.w3.org/1999/xlink" x="0px"
	 y="0px" width="92px" height="92px" viewBox="0 0 92 92" style="enable-background:new 0 0 92 92;" xml:space="preserve">
<g>
	<g>
		<circle style="fill-rule:evenodd;clip-rule:evenodd;fill:#82C8E6;" cx="46" cy="46" r="46"/>
		<path style="fill-rule:evenodd;clip-rule:evenodd;" d="M63.205,53.107c0-3.537-1.59-7.541-5.43-7.541
			c-1.864,0-2.988,0.987-3.976,2.413v-7.65h-3.866v20.292h3.729v-0.768c0.74,0.686,2.029,1.124,3.127,1.124
			C61.478,60.978,63.205,56.398,63.205,53.107z M59.174,53.656c0,2.001-0.548,4.579-3.016,4.579c-1.756,0-2.358-0.905-2.358-1.919
			v-4.799c0-0.851,0.082-1.262,0.74-1.893c0.411-0.411,1.015-0.74,1.782-0.74C58.763,48.885,59.174,51.682,59.174,53.656z"/>
		<path style="fill-rule:evenodd;clip-rule:evenodd;" d="M70.741,42.084c0-1.179-0.823-2.029-2.139-2.029
			c-1.316,0-2.166,0.851-2.166,2.029c0,1.18,0.85,2.029,2.166,2.029C69.918,44.113,70.741,43.264,70.741,42.084z M70.521,60.621
			V45.979h-3.865v14.643H70.521z"/>
		<path style="fill-rule:evenodd;clip-rule:evenodd;" d="M43.44,56.128c0,4.187-1.697,7.69-5.091,10.512
			c-3.394,2.82-7.757,4.231-13.09,4.231c-4.76,0-9.234-1.168-13.421-3.504l3.57-7.207c2.645,2.027,5.708,3.042,9.19,3.042
			c2.645,0,4.771-0.65,6.38-1.951c1.609-1.3,2.413-2.941,2.413-4.925c0-4.717-2.953-7.074-8.859-7.074h-4.827v-7.735h4.893
			c2.248,0,4.044-0.529,5.388-1.587s2.017-2.468,2.017-4.231c0-1.587-0.573-2.887-1.719-3.9c-1.278-1.102-3.085-1.652-5.421-1.652
			c-3.173,0-6.061,1.123-8.661,3.371l-3.24-6.876c4.231-2.776,8.903-4.165,14.016-4.165c4.584,0,8.264,1.19,11.041,3.57
			c2.601,2.204,3.901,4.937,3.901,8.198c0,5.024-2.512,8.484-7.537,10.38v0.132c2.689,0.485,4.849,1.675,6.479,3.57
			C42.581,50.397,43.44,52.998,43.44,56.128z"/>
		<path style="fill-rule:evenodd;clip-rule:evenodd;" d="M84.299,56.233c0-2.221-1.289-3.428-3.263-4.168l-1.782-0.658
			c-0.933-0.329-1.535-0.686-1.535-1.453c0-0.878,0.74-1.398,2.028-1.398c0.933,0,2.112,0.329,2.962,0.878l1.179-2.825
			c-0.768-0.384-2.11-0.959-3.948-0.959c-3.428,0-5.759,2.166-5.759,4.936c0,1.728,0.851,3.071,2.935,3.866l1.727,0.658
			c0.769,0.302,1.865,0.604,1.865,1.618c0,1.151-1.234,1.48-2.248,1.48c-1.152,0-2.496-0.438-3.428-1.097l-1.18,2.879
			c0.822,0.493,2.469,1.124,4.305,1.124C81.996,61.114,84.299,59.085,84.299,56.233z"/>
	</g>
</g>
</svg>
