<?xml version="1.0" encoding="iso-8859-1"?>
<!-- Generator: Adobe Illustrator 14.0.0, SVG Export Plug-In . SVG Version: 6.00 Build 43363)  -->
<!DOCTYPE svg PUBLIC "-//W3C//DTD SVG 1.1//EN" "http://www.w3.org/Graphics/SVG/1.1/DTD/svg11.dtd">
<svg version="1.1" id="Premier_plan" xmlns="http://www.w3.org/2000/svg" xmlns:xlink="http://www.w3.org/1999/xlink" x="0px"
	 y="0px" width="92px" height="92px" viewBox="0 0 92 92" style="enable-background:new 0 0 92 92;" xml:space="preserve">
<g>
	<g>
		<circle style="fill-rule:evenodd;clip-rule:evenodd;fill:#6E6E00;" cx="46" cy="46" r="46"/>
		<path style="fill-rule:evenodd;clip-rule:evenodd;fill:#FFFFFF;" d="M62.891,56.62c0-7.123-4.244-11.297-9.857-12.376v-0.144
			c5.396-2.015,8.203-6.044,8.203-11.297c0-6.764-5.9-12.808-16.262-12.808c-5.972,0-10.865,1.654-15.253,4.533l3.525,7.482
			c1.655-1.438,4.749-3.669,9.426-3.669c5.325,0,7.771,2.806,7.771,6.044c0,3.886-3.094,6.332-8.059,6.332H37.06v8.418h5.252
			c5.181,0,9.643,1.871,9.643,7.699c0,4.317-3.67,7.483-9.57,7.483c-4.317,0-7.843-1.655-10.001-3.311l-3.886,7.844
			c4.102,2.302,8.059,3.813,14.606,3.813C54.904,72.666,62.891,65.542,62.891,56.62z"/>
	</g>
</g>
</svg>
