<?xml version="1.0" encoding="iso-8859-1"?>
<!-- Generator: Adobe Illustrator 14.0.0, SVG Export Plug-In . SVG Version: 6.00 Build 43363)  -->
<!DOCTYPE svg PUBLIC "-//W3C//DTD SVG 1.1//EN" "http://www.w3.org/Graphics/SVG/1.1/DTD/svg11.dtd">
<svg version="1.1" id="Premier_plan" xmlns="http://www.w3.org/2000/svg" xmlns:xlink="http://www.w3.org/1999/xlink" x="0px"
	 y="0px" width="92px" height="92px" viewBox="0 0 92 92" style="enable-background:new 0 0 92 92;" xml:space="preserve">
<g>
	<g>
		<circle style="fill-rule:evenodd;clip-rule:evenodd;fill:#82DC73;" cx="46" cy="46" r="46"/>
		<path style="fill-rule:evenodd;clip-rule:evenodd;" d="M63.452,55.59c0-9.496-6.764-15.038-15.038-15.038
			c-5.396,0-8.634,1.943-10.361,3.454c0.648-10.217,5.9-15.326,12.879-15.326c2.879,0,5.469,0.647,6.836,1.223l1.583-8.634
			c-2.087-0.504-4.677-0.863-7.556-0.863c-15.973,0-24.104,12.088-24.104,29.717c0,13.455,4.893,23.023,18.564,23.023
			C56.688,73.146,63.452,65.736,63.452,55.59z M53.308,56.67c0,4.389-2.519,8.49-7.412,8.49c-5.037,0-7.771-4.678-7.771-9.498
			c0-1.51,0-3.453,0.576-4.316c1.007-1.584,3.525-2.807,6.619-2.807C50.213,48.539,53.308,51.92,53.308,56.67z"/>
	</g>
</g>
</svg>
