<?xml version="1.0" encoding="iso-8859-1"?>
<!-- Generator: Adobe Illustrator 14.0.0, SVG Export Plug-In . SVG Version: 6.00 Build 43363)  -->
<!DOCTYPE svg PUBLIC "-//W3C//DTD SVG 1.1//EN" "http://www.w3.org/Graphics/SVG/1.1/DTD/svg11.dtd">
<svg version="1.1" id="Premier_plan" xmlns="http://www.w3.org/2000/svg" xmlns:xlink="http://www.w3.org/1999/xlink" x="0px"
	 y="0px" width="92px" height="92px" viewBox="0 0 92 92" style="enable-background:new 0 0 92 92;" xml:space="preserve">
<g>
	<g>
		<circle style="fill-rule:evenodd;clip-rule:evenodd;fill:#82DC73;" cx="46" cy="46" r="46"/>
		<path style="fill-rule:evenodd;clip-rule:evenodd;" d="M63.53,53.107c0-3.537-1.591-7.541-5.429-7.541
			c-1.865,0-2.99,0.987-3.977,2.413v-7.65h-3.867v20.292h3.73v-0.768c0.74,0.686,2.029,1.124,3.125,1.124
			C61.803,60.978,63.53,56.398,63.53,53.107z M59.499,53.656c0,2.001-0.548,4.579-3.017,4.579c-1.754,0-2.357-0.905-2.357-1.919
			v-4.799c0-0.851,0.082-1.262,0.74-1.893c0.411-0.411,1.015-0.74,1.782-0.74C59.088,48.885,59.499,51.682,59.499,53.656z"/>
		<path style="fill-rule:evenodd;clip-rule:evenodd;" d="M71.066,42.084c0-1.179-0.822-2.029-2.139-2.029s-2.166,0.851-2.166,2.029
			c0,1.18,0.85,2.029,2.166,2.029S71.066,43.264,71.066,42.084z M70.848,60.621V45.979H66.98v14.643H70.848z"/>
		<path style="fill-rule:evenodd;clip-rule:evenodd;" d="M45.32,30.872C34.346,49.957,28.858,62.981,28.858,69.945H18.214
			c0-2.909,0.441-5.686,1.323-8.33c0.749-2.204,2.226-5.333,4.429-9.389L35.337,31.07H12.661V23.27h32.66V30.872z"/>
		<path style="fill-rule:evenodd;clip-rule:evenodd;" d="M84.624,56.233c0-2.221-1.288-3.428-3.263-4.168l-1.783-0.658
			c-0.932-0.329-1.535-0.686-1.535-1.453c0-0.878,0.74-1.398,2.029-1.398c0.933,0,2.111,0.329,2.961,0.878l1.18-2.825
			c-0.768-0.384-2.111-0.959-3.949-0.959c-3.428,0-5.758,2.166-5.758,4.936c0,1.728,0.85,3.071,2.934,3.866l1.729,0.658
			c0.768,0.302,1.864,0.604,1.864,1.618c0,1.151-1.234,1.48-2.249,1.48c-1.151,0-2.495-0.438-3.428-1.097l-1.179,2.879
			c0.823,0.493,2.468,1.124,4.306,1.124C82.32,61.114,84.624,59.085,84.624,56.233z"/>
	</g>
</g>
</svg>
