<?xml version="1.0" encoding="iso-8859-1"?>
<!-- Generator: Adobe Illustrator 14.0.0, SVG Export Plug-In . SVG Version: 6.00 Build 43363)  -->
<!DOCTYPE svg PUBLIC "-//W3C//DTD SVG 1.1//EN" "http://www.w3.org/Graphics/SVG/1.1/DTD/svg11.dtd">
<svg version="1.1" id="Premier_plan" xmlns="http://www.w3.org/2000/svg" xmlns:xlink="http://www.w3.org/1999/xlink" x="0px"
	 y="0px" width="92px" height="92px" viewBox="0 0 92 92" style="enable-background:new 0 0 92 92;" xml:space="preserve">
<g>
	<g>
		<circle style="fill-rule:evenodd;clip-rule:evenodd;fill:#D282BE;" cx="46" cy="46" r="46"/>
		<path style="fill-rule:evenodd;clip-rule:evenodd;" d="M63.708,57.461c0-6.691-4.102-10.721-8.777-12.951
			c4.748-2.879,7.194-6.548,7.194-11.297c0-8.707-7.411-13.096-16.333-13.096c-8.707,0-16.334,5.828-16.334,14.247
			c0,5.252,2.734,8.347,7.124,11.08c-4.893,2.519-8.707,6.476-8.707,13.239c0,7.699,6.404,14.463,17.701,14.463
			C56.009,73.146,63.708,67.103,63.708,57.461z M52.411,33.86c0,3.166-2.877,6.116-5.539,7.339
			c-3.238-1.367-7.412-3.598-7.412-7.771c0-3.526,2.519-5.973,6.477-5.973C50.109,27.456,52.411,30.335,52.411,33.86z
			 M53.203,58.252c0,4.029-2.662,7.412-7.483,7.412c-4.893,0-7.627-3.958-7.627-8.132c0-3.957,3.311-7.267,6.62-8.562
			C49.03,51.129,53.203,53.647,53.203,58.252z"/>
	</g>
</g>
</svg>
