<?xml version="1.0" encoding="iso-8859-1"?>
<!-- Generator: Adobe Illustrator 14.0.0, SVG Export Plug-In . SVG Version: 6.00 Build 43363)  -->
<!DOCTYPE svg PUBLIC "-//W3C//DTD SVG 1.1//EN" "http://www.w3.org/Graphics/SVG/1.1/DTD/svg11.dtd">
<svg version="1.1" id="Premier_plan" xmlns="http://www.w3.org/2000/svg" xmlns:xlink="http://www.w3.org/1999/xlink" x="0px"
	 y="0px" width="92px" height="92px" viewBox="0 0 92 92" style="enable-background:new 0 0 92 92;" xml:space="preserve">
<g>
	<g>
		<circle style="fill-rule:evenodd;clip-rule:evenodd;fill:#D2D200;" cx="46" cy="46" r="46"/>
		<path style="fill-rule:evenodd;clip-rule:evenodd;" d="M27.776,37.674c0,9.498,6.764,15.038,15.039,15.038
			c5.396,0,8.634-1.942,10.361-3.454c-0.648,10.218-5.9,15.326-12.88,15.326c-2.878,0-5.468-0.647-6.835-1.223l-1.583,8.634
			c2.087,0.504,4.677,0.864,7.555,0.864c15.974,0,24.105-12.089,24.105-29.717c0-13.456-4.894-23.025-18.564-23.025
			C34.54,20.117,27.776,27.528,27.776,37.674z M37.921,36.595c0-4.39,2.519-8.491,7.411-8.491c5.037,0,7.771,4.678,7.771,9.498
			c0,1.512,0,3.454-0.576,4.317c-1.007,1.583-3.525,2.807-6.619,2.807C41.015,44.726,37.921,41.344,37.921,36.595z"/>
	</g>
</g>
</svg>
