<?xml version="1.0" encoding="iso-8859-1"?>
<!-- Generator: Adobe Illustrator 14.0.0, SVG Export Plug-In . SVG Version: 6.00 Build 43363)  -->
<!DOCTYPE svg PUBLIC "-//W3C//DTD SVG 1.1//EN" "http://www.w3.org/Graphics/SVG/1.1/DTD/svg11.dtd">
<svg version="1.1" id="Calque_1" xmlns="http://www.w3.org/2000/svg" xmlns:xlink="http://www.w3.org/1999/xlink" x="0px" y="0px"
	 width="92px" height="92px" viewBox="0 0 92 92" style="enable-background:new 0 0 92 92;" xml:space="preserve">
<g>
	<path style="fill-rule:evenodd;clip-rule:evenodd;fill:#0055C8;" d="M53.009,70.673V21.328h-8.591
		c-2.496,1.867-5.175,3.585-8.038,5.155c-2.863,1.57-5.612,2.904-8.249,4.002l3.356,7.55c1.71-0.811,3.585-1.74,5.627-2.787
		c2.042-1.048,3.848-2.169,5.417-3.365v38.79H53.009z M85.749,45.989c0-21.877-17.883-39.64-39.649-39.64
		c-21.877,0-39.729,17.763-39.729,39.64c0,21.966,17.852,39.641,39.729,39.641C67.866,85.63,85.749,67.867,85.749,45.989z
		 M92,45.989C92,71.561,71.45,92,46.1,92C20.727,92,0,71.449,0,45.989C0,20.727,20.727,0,46.1,0C70.632,0,92,20.617,92,45.989z"/>
</g>
</svg>
