<?xml version="1.0" encoding="iso-8859-1"?>
<!-- Generator: Adobe Illustrator 14.0.0, SVG Export Plug-In . SVG Version: 6.00 Build 43363)  -->
<!DOCTYPE svg PUBLIC "-//W3C//DTD SVG 1.1//EN" "http://www.w3.org/Graphics/SVG/1.1/DTD/svg11.dtd">
<svg version="1.1" id="Calque_1" xmlns="http://www.w3.org/2000/svg" xmlns:xlink="http://www.w3.org/1999/xlink" x="0px" y="0px"
	 width="92px" height="92px" viewBox="0 0 92 92" style="enable-background:new 0 0 92 92;" xml:space="preserve">
<g>
	<g>
		<path style="fill:#FF5A00;" d="M73.059,59.375c-2.325,0-3.486-1.441-3.858-3.395c-2.047,2.419-3.952,3.627-7.347,3.627
			c-4.371,0-7.347-3.162-7.347-7.394c0-6.741,7.066-8.044,12.554-8.044c1.023,0,1.628-0.046,1.628-0.883v-1.627
			c0-1.767-1.116-3.44-4.557-3.44c-2.883,0-5.069,1.349-6.139,2.278l-2.277-4.65c2.743-1.767,5.766-2.558,10.043-2.558
			c3.487,0,9.113,1.256,9.113,8.417v11.438c0,0.884,0.094,1.628,0.884,1.628c0.279,0,0.791-0.14,1.069-0.233l0.372,4.231
			C76.221,59.004,74.594,59.375,73.059,59.375z M68.642,48.217c-0.697-0.048-1.395-0.048-1.952-0.048
			c-2.278,0-5.72,0.559-5.72,3.534c0,1.813,1.302,3.114,3.115,3.114c1.441,0,2.65-0.464,3.487-1.349
			c0.744-0.79,1.069-1.719,1.069-2.929V48.217z"/>
	</g>
	<path style="fill-rule:evenodd;clip-rule:evenodd;fill:#FF5A00;" d="M46.1,0C20.727,0,0,20.727,0,45.989
		C0,71.449,20.727,92,46.1,92C71.45,92,92,71.561,92,45.989C92,20.617,70.632,0,46.1,0z M46.1,85.628
		c-21.878,0-39.729-17.673-39.729-39.639c0-21.877,17.851-39.641,39.729-39.641c21.766,0,39.649,17.764,39.649,39.641
		C85.749,67.865,67.866,85.628,46.1,85.628z"/>
	<path style="fill-rule:evenodd;clip-rule:evenodd;fill:#FF5A00;" d="M49.155,54.975c-0.051-3.095-0.866-5.558-2.443-7.388
		c-1.577-1.829-3.605-2.981-6.086-3.456v-0.125c2.339-0.891,4.104-2.191,5.299-3.902c1.194-1.71,1.793-3.713,1.796-6.009
		c-0.024-3.031-1.25-5.632-3.673-7.804c-2.423-2.171-5.89-3.309-10.401-3.409c-2.748,0.008-5.196,0.35-7.345,1.027
		c-2.148,0.677-4.146,1.642-5.99,2.895l3.178,6.479c0.714-0.678,1.747-1.364,3.1-2.058c1.352-0.694,3.04-1.068,5.063-1.122
		c2.297,0.047,3.996,0.591,5.094,1.629c1.098,1.038,1.643,2.282,1.636,3.733c-0.022,1.708-0.648,3.064-1.877,4.07
		c-1.23,1.005-2.931,1.52-5.103,1.543h-4.61v7.284h4.548c2.311-0.032,4.263,0.469,5.858,1.504c1.594,1.035,2.425,2.799,2.491,5.293
		c-0.025,1.917-0.768,3.507-2.227,4.769c-1.459,1.263-3.479,1.918-6.06,1.967c-1.879-0.039-3.557-0.354-5.031-0.944
		c-1.474-0.591-2.685-1.233-3.629-1.925l-3.427,6.791c1.417,0.899,3.115,1.666,5.093,2.302c1.979,0.635,4.519,0.968,7.618,0.996
		c3.428-0.03,6.421-0.68,8.981-1.948c2.559-1.269,4.551-2.964,5.977-5.091C48.411,59.949,49.134,57.582,49.155,54.975z"/>
</g>
</svg>
