<?xml version="1.0" encoding="iso-8859-1"?>
<!-- Generator: Adobe Illustrator 14.0.0, SVG Export Plug-In . SVG Version: 6.00 Build 43363)  -->
<!DOCTYPE svg PUBLIC "-//W3C//DTD SVG 1.1//EN" "http://www.w3.org/Graphics/SVG/1.1/DTD/svg11.dtd">
<svg version="1.1" id="Calque_1" xmlns="http://www.w3.org/2000/svg" xmlns:xlink="http://www.w3.org/1999/xlink" x="0px" y="0px"
	 width="92px" height="92px" viewBox="0 0 92 92" style="enable-background:new 0 0 92 92;" xml:space="preserve">
<g>
	<g>
		<path style="fill:#009641;" d="M66.608,59.701c-1.859,0-4.045-0.744-5.301-1.907v1.116h-6.323V24.501h6.557v12.833
			c1.673-2.418,3.58-4.045,6.741-4.045c6.511,0,9.207,6.928,9.207,12.927C77.489,51.797,74.56,59.701,66.608,59.701z M65.771,38.962
			c-1.302,0-2.325,0.558-3.021,1.255c-1.116,1.069-1.256,1.768-1.256,3.209v8.416c0,1.72,1.022,3.254,3.999,3.254
			c4.184,0,5.208-4.51,5.208-7.904C70.701,43.845,69.91,38.962,65.771,38.962z"/>
	</g>
	<path style="fill-rule:evenodd;clip-rule:evenodd;fill:#009641;" d="M46.1,0C20.727,0,0,20.727,0,45.989
		C0,71.449,20.727,92,46.1,92C71.45,92,92,71.561,92,45.989C92,20.617,70.632,0,46.1,0z M46.1,85.628
		c-21.878,0-39.729-17.673-39.729-39.639c0-21.877,17.851-39.641,39.729-39.641c21.766,0,39.649,17.764,39.649,39.641
		C85.749,67.866,67.866,85.628,46.1,85.628z"/>
	<path style="fill-rule:evenodd;clip-rule:evenodd;fill:#009641;" d="M49.155,54.975c-0.051-3.095-0.866-5.558-2.443-7.388
		c-1.577-1.829-3.605-2.981-6.086-3.456v-0.125c2.338-0.891,4.104-2.191,5.299-3.902c1.195-1.71,1.793-3.713,1.796-6.009
		c-0.024-3.031-1.25-5.632-3.673-7.804c-2.423-2.171-5.891-3.309-10.401-3.409c-2.748,0.008-5.197,0.35-7.346,1.027
		c-2.147,0.677-4.145,1.642-5.989,2.895l3.178,6.479c0.714-0.678,1.747-1.364,3.1-2.058c1.352-0.694,3.04-1.068,5.063-1.122
		c2.298,0.047,3.996,0.591,5.094,1.629c1.098,1.038,1.644,2.282,1.636,3.733c-0.022,1.708-0.649,3.064-1.877,4.07
		c-1.23,1.005-2.93,1.52-5.102,1.543h-4.611v7.284h4.548c2.311-0.032,4.263,0.469,5.858,1.504c1.594,1.036,2.424,2.8,2.492,5.293
		c-0.026,1.917-0.768,3.507-2.228,4.77c-1.459,1.263-3.479,1.918-6.059,1.966c-1.88-0.039-3.557-0.354-5.032-0.944
		c-1.474-0.591-2.684-1.232-3.629-1.925l-3.427,6.791c1.418,0.899,3.115,1.666,5.093,2.303c1.979,0.635,4.518,0.968,7.617,0.995
		c3.428-0.03,6.422-0.68,8.982-1.948c2.559-1.268,4.551-2.964,5.977-5.091C48.411,59.949,49.134,57.582,49.155,54.975z"/>
</g>
</svg>
