<?xml version="1.0" encoding="iso-8859-1"?>
<!-- Generator: Adobe Illustrator 14.0.0, SVG Export Plug-In . SVG Version: 6.00 Build 43363)  -->
<!DOCTYPE svg PUBLIC "-//W3C//DTD SVG 1.1//EN" "http://www.w3.org/Graphics/SVG/1.1/DTD/svg11.dtd">
<svg version="1.1" id="Calque_1" xmlns="http://www.w3.org/2000/svg" xmlns:xlink="http://www.w3.org/1999/xlink" x="0px" y="0px"
	 width="92px" height="92px" viewBox="0 0 92 92" style="enable-background:new 0 0 92 92;" xml:space="preserve">
<g>
	<path style="fill-rule:evenodd;clip-rule:evenodd;fill:#640082;" d="M62.966,54.395c0.016-2.615-0.646-5.115-1.988-7.501
		c-1.343-2.384-3.464-4.377-6.364-5.978c-2.902-1.602-6.683-2.534-11.343-2.797c-0.265-0.003-0.535-0.016-0.809-0.036
		c-0.274-0.021-0.489-0.034-0.645-0.037l0.726-9.749h18.461v-8.568H34.047l-2.034,26.667c0.882,0.003,2.06,0.014,3.531,0.036
		s2.958,0.033,4.456,0.037c3.124,0.087,5.554,0.608,7.293,1.56c1.74,0.951,2.953,2.102,3.643,3.45
		c0.688,1.348,1.02,2.659,0.991,3.935c-0.038,2.004-0.521,3.627-1.45,4.87c-0.929,1.242-2.08,2.149-3.454,2.72
		c-1.373,0.571-2.746,0.854-4.117,0.846c-1.977-0.014-3.743-0.313-5.301-0.899c-1.558-0.587-3.036-1.378-4.43-2.373l-4.142,7.992
		c1.946,1.203,4.101,2.119,6.465,2.749c2.363,0.632,5.026,0.949,7.989,0.954c3.925-0.039,7.342-0.856,10.252-2.454
		c2.908-1.597,5.167-3.737,6.776-6.425C62.125,60.705,62.941,57.706,62.966,54.395z M85.749,45.989
		c0-21.877-17.884-39.64-39.649-39.64c-21.878,0-39.729,17.763-39.729,39.64c0,21.966,17.851,39.64,39.729,39.64
		C67.865,85.629,85.749,67.866,85.749,45.989z M92,45.989C92,71.561,71.449,92,46.1,92C20.727,92,0,71.45,0,45.989
		C0,20.727,20.727,0,46.1,0C70.632,0,92,20.617,92,45.989z"/>
</g>
</svg>
