<?xml version="1.0" encoding="iso-8859-1"?>
<!-- Generator: Adobe Illustrator 14.0.0, SVG Export Plug-In . SVG Version: 6.00 Build 43363)  -->
<!DOCTYPE svg PUBLIC "-//W3C//DTD SVG 1.1//EN" "http://www.w3.org/Graphics/SVG/1.1/DTD/svg11.dtd">
<svg version="1.1" id="Calque_1" xmlns="http://www.w3.org/2000/svg" xmlns:xlink="http://www.w3.org/1999/xlink" x="0px" y="0px"
	 width="92px" height="92px" viewBox="0 0 92 92" style="enable-background:new 0 0 92 92;" xml:space="preserve">
<path style="fill-rule:evenodd;clip-rule:evenodd;fill:#FF1400;" d="M53.796,56.056c-0.004,2.24-0.636,4.174-1.896,5.803
	c-1.261,1.628-3.133,2.48-5.615,2.56c-2.561-0.094-4.509-1.06-5.846-2.896c-1.337-1.838-2.011-3.99-2.02-6.456
	c-0.011-0.779,0.012-1.58,0.071-2.401c0.059-0.822,0.224-1.463,0.496-1.922c0.515-0.797,1.362-1.453,2.541-1.966
	c1.18-0.515,2.577-0.779,4.19-0.797c2.508,0.043,4.474,0.806,5.899,2.284C53.042,51.743,53.769,53.674,53.796,56.056z
	 M63.843,54.923c-0.105-4.707-1.559-8.341-4.361-10.904c-2.803-2.563-6.329-3.86-10.575-3.892c-2.682,0.049-4.866,0.429-6.556,1.141
	c-1.688,0.711-2.952,1.463-3.79,2.255c0.406-5.053,1.755-8.919,4.048-11.6c2.292-2.681,5.217-4.033,8.776-4.057
	c1.475,0.015,2.813,0.145,4.02,0.39c1.206,0.245,2.156,0.517,2.848,0.815l1.558-8.491c-1.064-0.252-2.226-0.456-3.484-0.61
	c-1.261-0.155-2.6-0.235-4.02-0.239c-5.338,0.047-9.796,1.338-13.376,3.873c-3.578,2.535-6.269,6.034-8.068,10.496
	c-1.8,4.463-2.701,9.609-2.703,15.438c-0.024,4.453,0.566,8.38,1.772,11.783c1.205,3.403,3.17,6.07,5.895,8
	c2.724,1.931,6.353,2.913,10.884,2.949c5.299-0.099,9.465-1.741,12.497-4.928C62.238,64.156,63.782,60.017,63.843,54.923z
	 M85.749,45.989c0-21.877-17.884-39.64-39.649-39.64c-21.877,0-39.729,17.763-39.729,39.64c0,21.966,17.852,39.64,39.729,39.64
	C67.865,85.629,85.749,67.866,85.749,45.989z M92,45.989C92,71.561,71.449,92,46.1,92C20.727,92,0,71.45,0,45.989
	C0,20.727,20.727,0,46.1,0C70.632,0,92,20.617,92,45.989z"/>
</svg>
