<?xml version="1.0" encoding="utf-8"?>
<!-- Generator: Adobe Illustrator 21.0.2, SVG Export Plug-In . SVG Version: 6.00 Build 0)  -->
<svg version="1.1" id="Calque_1" xmlns="http://www.w3.org/2000/svg" xmlns:xlink="http://www.w3.org/1999/xlink" x="0px" y="0px"
	 viewBox="0 0 92 92" style="enable-background:new 0 0 92 92;" xml:space="preserve">
<style type="text/css">
	.st0{fill-rule:evenodd;clip-rule:evenodd;fill:#6E491E;}
</style>
<path class="st0" d="M63.3,29.4v-8H28.7v8.2h24l-12,22.4c-1.4,2.6-2.6,5-3.5,7c-0.9,2-1.6,3.9-2,5.8c-0.4,1.8-0.6,3.8-0.6,6h11.2
	c0-3.9,1.6-9.4,4.6-16.5C53.5,47.1,57.8,38.8,63.3,29.4z M85.7,46c0-21.9-17.9-39.6-39.6-39.6C24.2,6.3,6.4,24.1,6.4,46
	c0,22,17.9,39.6,39.7,39.6C67.9,85.6,85.7,67.9,85.7,46z M92,46c0,25.6-20.6,46-45.9,46C20.7,92,0,71.4,0,46C0,20.7,20.7,0,46.1,0
	C70.6,0,92,20.6,92,46z"/>
</svg>
