<?xml version="1.0" encoding="iso-8859-1"?>
<!-- Generator: Adobe Illustrator 14.0.0, SVG Export Plug-In . SVG Version: 6.00 Build 43363)  -->
<!DOCTYPE svg PUBLIC "-//W3C//DTD SVG 1.1//EN" "http://www.w3.org/Graphics/SVG/1.1/DTD/svg11.dtd">
<svg version="1.1" id="Calque_1" xmlns="http://www.w3.org/2000/svg" xmlns:xlink="http://www.w3.org/1999/xlink" x="0px" y="0px"
	 width="92px" height="92px" viewBox="0 0 92 92" style="enable-background:new 0 0 92 92;" xml:space="preserve">
<path style="fill-rule:evenodd;clip-rule:evenodd;fill:#6E6E00;" d="M53.262,57.697c-0.012,2.029-0.644,3.73-1.896,5.108
	c-1.253,1.377-3.063,2.094-5.435,2.149c-2.409-0.077-4.252-0.893-5.533-2.449c-1.282-1.556-1.927-3.394-1.938-5.513
	c0.068-1.978,0.742-3.748,2.026-5.312c1.284-1.563,2.771-2.683,4.458-3.356c2.197,1.033,4.112,2.296,5.744,3.788
	C52.321,53.605,53.178,55.466,53.262,57.697z M52.486,33.177c-0.064,1.595-0.643,3.089-1.736,4.483
	c-1.094,1.393-2.325,2.412-3.693,3.056c-1.69-0.662-3.296-1.646-4.819-2.951c-1.523-1.305-2.337-2.976-2.44-5.012
	c0.021-1.754,0.594-3.161,1.717-4.219c1.125-1.059,2.665-1.602,4.627-1.629c2.054,0.045,3.621,0.659,4.705,1.841
	C51.931,29.929,52.477,31.405,52.486,33.177z M63.536,56.922c-0.072-3.271-0.931-5.977-2.578-8.121
	c-1.646-2.142-3.648-3.757-6.009-4.843c2.325-1.418,4.08-3.092,5.261-5.021s1.773-4.06,1.777-6.394
	c-0.037-2.841-0.771-5.211-2.203-7.109c-1.434-1.899-3.353-3.324-5.756-4.276c-2.404-0.952-5.079-1.428-8.028-1.428
	c-2.881,0.02-5.527,0.614-7.934,1.783s-4.342,2.796-5.802,4.881s-2.21,4.511-2.25,7.277c0.022,2.55,0.646,4.726,1.874,6.527
	c1.227,1.801,2.924,3.359,5.092,4.677c-2.448,1.217-4.466,2.904-6.052,5.064c-1.587,2.16-2.408,4.887-2.464,8.183
	c0.009,2.548,0.687,4.887,2.034,7.02c1.347,2.132,3.308,3.845,5.884,5.139c2.576,1.294,5.711,1.958,9.406,1.993
	c5.21-0.049,9.445-1.428,12.707-4.135C61.754,65.43,63.435,61.692,63.536,56.922z M85.749,45.989c0-21.877-17.882-39.64-39.65-39.64
	c-21.876,0-39.728,17.763-39.728,39.64c0,21.966,17.852,39.642,39.728,39.642C67.867,85.631,85.749,67.867,85.749,45.989z
	 M92,45.989C92,71.561,71.45,92,46.099,92C20.728,92,0,71.451,0,45.989C0,20.728,20.728,0,46.099,0C70.632,0,92,20.617,92,45.989z"
	/>
</svg>
