<?xml version="1.0" encoding="UTF-8"?>
<!-- Generator: Adobe Illustrator 21.1.0, SVG Export Plug-In . SVG Version: 6.00 Build 0)  -->
<svg version="1.1" id="trar" xmlns="http://www.w3.org/2000/svg" xmlns:xlink="http://www.w3.org/1999/xlink" x="0px" y="0px" viewBox="0 0 58 58" style="enable-background:new 0 0 58 58;" xml:space="preserve">
<path aria-hidden="true" fill="#EBBDD7" d="M48,58H10C4.5,58,0,53.5,0,48V10C0,4.5,4.5,0,10,0H48c5.5,0,10,4.5,10,10V48C58,53.5,53.5,58,48,58z M53.7,10  c0-3.1-2.6-5.7-5.7-5.7H10c-3.1,0-5.7,2.6-5.7,5.7V48c0,3.1,2.6,5.7,5.7,5.7H48c3.1,0,5.7-2.6,5.7-5.7V10z M32.6,40.3  c-0.3-1-0.7-2.4-1.1-4c-0.3-1.6-0.8-2.8-1.5-3.4c-0.7-0.6-1.6-0.9-2.8-0.9h-1.8v10.5h-6V16.1c1-0.2,2.2-0.3,3.5-0.4  c1.4-0.1,2.9-0.2,4.5-0.2c2,0,3.7,0.2,5.1,0.5c1.4,0.3,2.6,0.9,3.5,1.6c0.8,0.6,1.4,1.4,1.8,2.3c0.4,0.9,0.6,2,0.6,3.2  C38.5,25,38,26.4,37,27.5c-0.9,1.1-2,1.9-3.2,2.3v0.1c0.9,0.4,1.7,1,2.2,1.9c0.6,0.9,1,1.9,1.3,3.1c0.4,1.6,0.8,3.1,1.2,4.5  c0.4,1.4,0.7,2.4,1,3h-6.2C33.2,42,32.9,41.3,32.6,40.3z M31.4,21c-0.8-0.6-1.9-0.9-3.3-1c-0.7,0-1.3,0-1.8,0.1  c-0.4,0-0.8,0.1-1,0.1v7.4h2.4c1.5,0,2.7-0.4,3.5-1c0.8-0.7,1.3-1.6,1.3-2.8C32.5,22.5,32.2,21.6,31.4,21z"/>
</svg>