<?xml version="1.0" encoding="utf-8"?>
<!-- Generator: Adobe Illustrator 21.1.0, SVG Export Plug-In . SVG Version: 6.00 Build 0)  -->
<svg version="1.1" id="t4" xmlns="http://www.w3.org/2000/svg" xmlns:xlink="http://www.w3.org/1999/xlink" x="0px" y="0px"
	 viewBox="0 0 58 58" style="enable-background:new 0 0 58 58;" xml:space="preserve">
<path aria-hidden="true" fill="#FCC322" d="M29,58C13,58,0,45,0,29C0,13,13,0,29,0c16,0,29,13,29,29C58,45,45,58,29,58z M29,1.2C13.7,1.2,1.2,13.7,1.2,29
	c0,15.3,12.5,27.8,27.8,27.8c15.3,0,27.8-12.5,27.8-27.8C56.8,13.7,44.3,1.2,29,1.2z M35.1,44.8h-5.9v-6.4H16.3v-5.3l13.7-20h5.1v20
	H39v5.3h-3.9V44.8z M29.3,22.4L22,33.2h7.3V22.4z"/>
</svg>
