<?xml version="1.0" encoding="UTF-8"?>
<!-- Generator: Adobe Illustrator 21.1.0, SVG Export Plug-In . SVG Version: 6.00 Build 0)  -->
<svg version="1.1" id="trap" xmlns="http://www.w3.org/2000/svg" xmlns:xlink="http://www.w3.org/1999/xlink" x="0px" y="0px" viewBox="0 0 58 58" style="enable-background:new 0 0 58 58;" xml:space="preserve">
<path aria-hidden="true" fill="#F7B018" d="M48,58H10C4.5,58,0,53.5,0,48V10C0,4.5,4.5,0,10,0H48c5.5,0,10,4.5,10,10V48C58,53.5,53.5,58,48,58z M53.7,10  c0-3.1-2.6-5.7-5.7-5.7H10c-3.1,0-5.7,2.6-5.7,5.7V48c0,3.1,2.6,5.7,5.7,5.7H48c3.1,0,5.7-2.6,5.7-5.7V10z M36.1,30.2  c-1,1-2.3,1.7-3.8,2.1c-1.5,0.5-3.1,0.7-4.9,0.7c-0.4,0-0.8,0-1.1,0c-0.3,0-0.7,0-0.9-0.1v9.5h-6V16.1c0.9-0.2,2.1-0.3,3.4-0.4  c1.3-0.1,2.9-0.2,4.8-0.2c1.9,0,3.5,0.2,4.8,0.5c1.3,0.4,2.5,0.9,3.3,1.6c0.9,0.7,1.6,1.6,2.1,2.6c0.5,1.1,0.8,2.2,0.8,3.6  c0,1.3-0.2,2.5-0.6,3.6C37.5,28.5,36.9,29.4,36.1,30.2z M31.4,21.2c-0.8-0.7-2-1-3.5-1c-0.6,0-1.1,0-1.5,0.1c-0.4,0-0.7,0.1-1,0.2  v7.9c0.3,0.1,0.5,0.1,0.9,0.1c0.3,0,0.7,0,1.1,0c1.6,0,2.9-0.4,3.8-1.2c0.9-0.8,1.4-1.8,1.4-3.2C32.6,22.8,32.2,21.8,31.4,21.2z"/>
</svg>