<?xml version="1.0" encoding="UTF-8"?>
<!-- Generator: Adobe Illustrator 21.1.0, SVG Export Plug-In . SVG Version: 6.00 Build 0)  -->
<svg version="1.1" id="tral" xmlns="http://www.w3.org/2000/svg" xmlns:xlink="http://www.w3.org/1999/xlink" x="0px" y="0px" viewBox="0 0 58 58" style="enable-background:new 0 0 58 58;" xml:space="preserve">
<path aria-hidden="true" fill="#797FBC" d="M48,58H10C4.5,58,0,53.5,0,48V10C0,4.5,4.5,0,10,0H48c5.5,0,10,4.5,10,10V48C58,53.5,53.5,58,48,58z M53.7,10  c0-3.1-2.6-5.7-5.7-5.7H10c-3.1,0-5.7,2.6-5.7,5.7V48c0,3.1,2.6,5.7,5.7,5.7H48c3.1,0,5.7-2.6,5.7-5.7V10z M20.7,15.7h6.1v21.6h10.6  v5.1H20.7V15.7z"/>
</svg>