<?xml version="1.0" encoding="UTF-8"?>
<!-- Generator: Adobe Illustrator 21.1.0, SVG Export Plug-In . SVG Version: 6.00 Build 0)  -->
<svg version="1.1" id="traj" xmlns="http://www.w3.org/2000/svg" xmlns:xlink="http://www.w3.org/1999/xlink" x="0px" y="0px" viewBox="0 0 58 58" style="enable-background:new 0 0 58 58;" xml:space="preserve">

<path aria-hidden="true" fill="#C7D52A" d="M48.1,58H9.9C4.5,58,0,53.5,0,48.1V9.9C0,4.5,4.5,0,9.9,0h38.1C53.5,0,58,4.5,58,9.9v38.1  C58,53.5,53.5,58,48.1,58z M53.8,9.9c0-3.2-2.6-5.7-5.7-5.7H9.9c-3.2,0-5.7,2.6-5.7,5.7v38.1c0,3.2,2.6,5.7,5.7,5.7h38.1  c3.2,0,5.7-2.6,5.7-5.7V9.9z M26.4,42.5c-0.7,0-1.5-0.1-2.3-0.2c-0.8-0.1-1.5-0.3-2.1-0.5l0.7-4.9c0.4,0.1,0.9,0.3,1.4,0.3  c0.5,0.1,1.1,0.1,1.7,0.1c1.3,0,2.3-0.3,3-1.1c0.7-0.8,1.1-2.2,1.1-4.2V15.4h6v16.9c0,3.8-0.9,6.4-2.6,8  C31.7,41.8,29.4,42.6,26.4,42.5z"/>
</svg>