<?xml version="1.0" encoding="utf-8"?>
<!-- Generator: Adobe Illustrator 21.1.0, SVG Export Plug-In . SVG Version: 6.00 Build 0)  -->
<svg version="1.1" id="trau" xmlns="http://www.w3.org/2000/svg" xmlns:xlink="http://www.w3.org/1999/xlink" x="0px" y="0px"
	 viewBox="0 0 58 58" style="enable-background:new 0 0 58 58;" xml:space="preserve">
<path aria-hidden="true" fill="#ED0677" d="M48,58H9.9C4.5,58,0,53.5,0,48.1V9.9C0,4.5,4.5,0,9.9,0H48C53.5,0,58,4.5,58,9.9v38.1C58,53.5,53.5,58,48,58z
	 M53.8,9.9c0-3.2-2.6-5.7-5.7-5.7H9.9c-3.2,0-5.7,2.6-5.7,5.7v38.1c0,3.2,2.6,5.7,5.7,5.7H48c3.2,0,5.7-2.6,5.7-5.7V9.9z M28.8,42.5
	c-3.4,0-6-1-7.9-2.9c-1.9-2-2.8-5.1-2.8-9.3V15.4h6.1v15.4c0,2.3,0.4,4,1.3,5.2c0.8,1.2,2,1.7,3.6,1.7c1.6,0,2.8-0.6,3.6-1.7
	c0.8-1.1,1.3-2.9,1.3-5.2V15.4h6v15c0,4.1-1,7.2-2.9,9.2C35,41.6,32.3,42.5,28.8,42.5z"/>
</svg>
