<?xml version="1.0" encoding="UTF-8"?>
<!-- Generator: Adobe Illustrator 21.1.0, SVG Export Plug-In . SVG Version: 6.00 Build 0)  -->
<svg version="1.1" id="tran" xmlns="http://www.w3.org/2000/svg" xmlns:xlink="http://www.w3.org/1999/xlink" x="0px" y="0px" viewBox="0 0 58 58" style="enable-background:new 0 0 58 58;" xml:space="preserve">
<path aria-hidden="true" fill="#3CB6AC" d="M48,58H10C4.5,58,0,53.5,0,48V10C0,4.5,4.5,0,10,0H48c5.5,0,10,4.5,10,10V48C58,53.5,53.5,58,48,58z M53.7,10  c0-3.1-2.6-5.7-5.7-5.7H10c-3.1,0-5.7,2.6-5.7,5.7V48c0,3.1,2.6,5.7,5.7,5.7H48c3.1,0,5.7-2.6,5.7-5.7V10z M28,32  c-0.8-1.4-1.6-3-2.4-4.6c-0.8-1.6-1.5-3.2-2.2-4.8l-0.1,0c0.1,1.8,0.1,3.6,0.2,5.5c0,1.9,0.1,4,0.1,6.1v8H18V15.7h7l5.5,9.8  c0.8,1.4,1.6,2.9,2.3,4.5c0.8,1.6,1.4,3.1,2,4.6H35c-0.2-1.8-0.3-3.5-0.4-5.4c-0.1-1.8-0.1-3.8-0.1-5.8v-7.8H40v26.7h-6.3L28,32z"/>
</svg>