<svg xmlns="http://www.w3.org/2000/svg" width="100" height="100" viewBox="0 0 105 105">
    <title>RER</title>
    <g id="Page-1" stroke="none" stroke-width="1" fill="none" fill-rule="evenodd">
        <g id="Group" fill-rule="nonzero">
            <g id="rer">
                <path d="M49.968254,99.9546485 C23.025111,99.9546485 0.181405896,77.0050007 0.181405896,49.7687075 C0.181405896,22.2775035 22.3815952,0.181405896 49.968254,0.181405896 C77.5577679,0.181405896 99.9546485,22.3800706 99.9546485,49.7687075 C99.9546485,77.4095415 77.5050074,99.9546485 49.968254,99.9546485 Z" id="Path" fill="#003E95"></path>
                <path d="M49.968254,92.6984127 C73.49059,92.6984127 92.6984127,73.4089098 92.6984127,49.7687075 C92.6984127,26.4020894 73.564628,7.43764172 49.968254,7.43764172 C26.3814893,7.43764172 7.43764172,26.2926659 7.43764172,49.7687075 C7.43764172,73.0049889 27.0401545,92.6984127 49.968254,92.6984127 Z" id="Path" fill="#FFFFFF"></path>
            </g>
            <path d="M75.9324478,63.8428978 L70.6852822,52.4370021 L68.0685022,52.4823535 L68.2499081,62.7862084 C68.277119,64.3372288 66.9347154,65.1853014 65.2249648,65.2125123 C63.7827879,65.2397232 62.2317675,64.5322402 62.2090918,62.895052 L61.7419716,36.1694284 C61.7147607,34.7998139 62.5038763,33.511832 64.1274591,33.480086 L72.6081847,33.3349613 C77.0254183,33.2578637 81.5787063,35.9154601 81.6875498,42.1150066 C81.7691825,46.7680678 79.292992,49.5526483 76.431314,51.0583173 L81.3882301,61.1898365 C82.4177085,63.2714692 79.9233775,64.9540089 78.122924,64.99029 C77.2158945,65.0038955 76.399568,64.7453921 75.9324478,63.8383626 L75.9324478,63.8428978 Z M56.6580714,65.2714692 L45.1115861,65.4755508 C43.6694092,65.5027617 42.032221,64.7091109 42.0050101,63.1626256 L41.5424251,36.527705 C41.5197494,35.1580905 42.3950328,33.8655735 43.9279126,33.8383626 L55.4743979,33.6388161 C57.0934455,33.6070701 57.9324478,35.0537821 57.9551235,36.4233966 C57.9777993,37.697773 57.1932188,39.2623989 55.569636,39.2941449 L47.633128,39.4301993 L47.7601122,46.6365486 L54.8848287,46.5140996 C56.4177085,46.4868887 57.4335816,47.7431245 57.4562573,49.112739 C57.478933,50.3916506 56.5084115,51.7748705 54.9755317,51.8020814 L47.8553503,51.9245304 L47.9914047,59.7703354 L56.5582981,59.6206755 C58.1818809,59.5934647 59.107051,61.0356415 59.1297267,62.405256 C59.1524024,63.6796325 58.277119,65.2487934 56.6580714,65.2760043 L56.6580714,65.2714692 Z M32.2907244,64.6002674 L27.0390237,53.1989068 L24.4267788,53.2442583 L24.6081847,63.5481132 C24.6308605,65.0991336 23.3836949,65.942671 21.6694092,65.974417 C20.2272324,65.9970928 18.5900441,65.2941449 18.5628333,63.6569567 L18.0957131,36.9313331 C18.0730373,35.5617186 18.862153,34.2737368 20.4857358,34.2419907 L28.9619262,34.096866 C33.3791598,34.0197685 37.9369829,36.6773649 38.0458265,42.8769114 C38.1274591,47.5299726 35.6467335,50.3145531 32.7850555,51.820222 L37.8372097,61.9517413 C38.8666881,64.0333739 36.277119,65.7159136 34.4766655,65.7521948 C33.569636,65.7658003 32.7533095,65.5072969 32.2907244,64.6002674 Z M67.9914047,47.9199953 L69.7918582,47.8882492 C71.9551235,47.8519681 75.4607924,46.8769114 75.3882301,42.958544 C75.3338083,39.7658003 72.7850555,38.5322402 69.9914047,38.5821268 L67.8281394,38.618408 L67.9914047,47.9199953 Z M24.3451462,48.6819 L26.1501349,48.650154 C28.3134002,48.6138728 31.8145339,47.6388161 31.7465067,43.7159136 C31.6875498,40.527705 29.1433321,39.2941449 26.3496813,39.3394964 L24.1818809,39.3803127 L24.3451462,48.6819 Z" id="Shape" fill="#003E95"></path>
        </g>
    </g>
</svg>
