<svg xmlns="http://www.w3.org/2000/svg" width="100" height="100" viewBox="0 0 105 105">
    <title>Métro</title>
    <g id="Page-1" stroke="none" stroke-width="1" fill="none" fill-rule="evenodd">
        <g id="Group" fill-rule="nonzero">
            <g id="metro">
                <path d="M49.968254,99.9546485 C23.025111,99.9546485 0.181405896,77.0050007 0.181405896,49.7687075 C0.181405896,22.2775035 22.3815952,0.181405896 49.968254,0.181405896 C77.5577679,0.181405896 99.9546485,22.3800706 99.9546485,49.7687075 C99.9546485,77.4095415 77.5050074,99.9546485 49.968254,99.9546485 Z" id="Path" fill="#003E95"></path>
                <path d="M49.968254,92.6984127 C73.49059,92.6984127 92.6984127,73.4089098 92.6984127,49.7687075 C92.6984127,26.4020894 73.564628,7.43764172 49.968254,7.43764172 C26.3814893,7.43764172 7.43764172,26.2926659 7.43764172,49.7687075 C7.43764172,73.0049889 27.0401545,92.6984127 49.968254,92.6984127 Z" id="Path" fill="#FFFFFF"></path>
            </g>
            <path fill="#003E95" d="M73.796 75.422c-.839.634-1.827.949-2.965.949-1.006 0-1.961-.315-2.864-.949-.905-.632-1.356-1.548-1.356-2.746V40.203h-.099L54.108 65.382c-.469.934-1.002 1.632-1.601 2.099-.601.467-1.401.699-2.401.699-1 0-1.801-.232-2.4-.699-.601-.467-1.134-1.165-1.601-2.099L33.702 40.203h-.1v32.473c0 1.198-.471 2.114-1.408 2.746-.937.634-1.91.949-2.914.949-1.14 0-2.112-.315-2.916-.949-.803-.632-1.205-1.548-1.205-2.746V29.114c0-1.266.399-2.449 1.201-3.547s2.238-1.647 4.309-1.647c1.536 0 2.723.35 3.558 1.049.834.699 1.584 1.749 2.254 3.146L50.106 56.19h.1L63.73 28.115c.667-1.397 1.419-2.447 2.254-3.146.835-.699 2.02-1.049 3.558-1.049 2.07 0 3.506.549 4.307 1.647.802 1.099 1.203 2.282 1.203 3.547v43.562c0 1.198-.419 2.114-1.256 2.746z"></path>
        </g>
    </g>
</svg>
